Coordinates
version=1
nRows=17
nColumns=24
inDegrees=yes

Units are S.I. units (second, meters, Newtons, ...)
If the header above contains a line with 'inDegrees', this indicates whether rotational values are in degrees (yes) or radians (no).

endheader
time	pelvis_tilt	pelvis_list	pelvis_rotation	pelvis_tx	pelvis_ty	pelvis_tz	hip_flexion_r	hip_adduction_r	hip_rotation_r	knee_angle_r	ankle_angle_r	subtalar_angle_r	mtp_angle_r	hip_flexion_l	hip_adduction_l	hip_rotation_l	knee_angle_l	ankle_angle_l	subtalar_angle_l	mtp_angle_l	lumbar_extension	lumbar_bending	lumbar_rotation
      5.25000000	     -4.90616791	    -30.90274131	    -98.75252842	     -0.24979695	      0.95789332	     -2.12146449	    -53.85246358	     -1.90980181	     -3.13995698	     -5.97430296	      8.06001302	     10.90793382	      0.00000000	    -12.45464270	     -3.52584809	    -17.90587701	      3.25885207	      2.93196005	      2.87464086	      0.00000000	    -49.16540717	     -2.43175210	     12.64762553
      5.26000000	     -4.48897759	    -31.07626998	    -99.06663209	     -0.24856558	      0.95736850	     -2.10455255	    -53.49209519	     -2.93123026	     -3.37190130	     -8.45862046	      7.23142268	     11.04561446	      0.00000000	    -12.73514307	     -2.95055463	    -17.86106887	      1.89440208	      1.02420930	      2.67229309	      0.00000000	    -49.11459828	     -3.19712634	     12.54295832
      5.27000000	     -3.91576707	    -31.29224704	    -99.28220508	     -0.24712525	      0.95724829	     -2.08757799	    -52.96882932	     -4.06626717	     -3.81606307	    -11.19447816	      5.98167248	     11.15168568	      0.00000000	    -13.11146151	     -2.22504870	    -17.86267561	      0.70536665	     -1.03797545	      2.31199163	      0.00000000	    -49.08809262	     -4.04916891	     12.30982191
      5.28000000	     -3.18152670	    -31.56438070	    -99.39336973	     -0.24546583	      0.95762176	     -2.07065713	    -52.26154416	     -5.33774845	     -4.48436838	    -14.21825113	      4.21335266	     11.24335454	      0.00000000	    -13.57105219	     -1.34443997	    -17.77291131	     -0.41417544	     -2.82438895	      1.72949607	      0.00000000	    -49.12257637	     -4.98641386	     11.93906347
      5.29000000	     -2.28784647	    -31.87158902	    -99.37055803	     -0.24356617	      0.95846196	     -2.05392043	    -51.32302078	     -6.73216166	     -5.31412629	    -17.55464776	      1.85410683	     11.19122060	      0.00000000	    -14.00810164	     -0.32470596	    -17.42206230	     -1.66582663	     -3.94373071	      0.91373087	      0.00000000	    -49.22034484	     -5.97961367	     11.40144535
      5.30000000	     -1.28758965	    -32.16124212	    -99.20849548	     -0.24144251	      0.95965149	     -2.03749718	    -50.08810245	     -8.18816330	     -6.17210570	    -21.20056033	     -1.16652503	     10.82336874	      0.00000000	    -14.30550047	      0.77045989	    -16.84379266	     -3.18167052	     -4.27120974	      0.04342091	      0.00000000	    -49.35572804	     -6.96016885	     10.73054658
      5.31000000	     -0.24407044	    -32.41349536	    -98.97642096	     -0.23918576	      0.96101299	     -2.02138295	    -48.55682487	     -9.68487653	     -6.90206527	    -25.09992154	     -4.81120345	     10.00511523	      0.00000000	    -14.45786482	      1.89581816	    -16.28071125	     -4.95202895	     -3.85578054	     -0.57712635	      0.00000000	    -49.50118419	     -7.90538372	      9.98832999
      5.32000000	      0.74869408	    -32.60566171	    -98.70208366	     -0.23681879	      0.96237988	     -2.00556449	    -46.75936558	    -11.13208839	     -7.46781835	    -29.14305464	     -8.95156936	      8.69444529	      0.00000000	    -14.52843988	      2.96910594	    -15.88009825	     -6.80418444	     -2.97931790	     -0.89570765	      0.00000000	    -49.62593296	     -8.72294145	      9.24127271
      5.33000000	      1.58194181	    -32.72360876	    -98.43304886	     -0.23444170	      0.96368254	     -1.99001619	    -44.75770121	    -12.40736744	     -7.80673690	    -33.16274876	    -13.35749678	      6.82967440	      0.00000000	    -14.61043988	      3.88091340	    -15.76423464	     -8.55194236	     -1.81581649	     -0.80578502	      0.00000000	    -49.70326939	     -9.34342912	      8.51639302
      5.34000000	      2.17848202	    -32.79117096	    -98.28371728	     -0.23219845	      0.96497365	     -1.97469953	    -42.62502227	    -13.48319722	     -7.89216680	    -37.03893460	    -17.53690323	      4.53480798	      0.00000000	    -14.85021370	      4.58321274	    -16.07392380	     -9.98792015	     -0.52425031	     -0.24545113	      0.00000000	    -49.73201828	     -9.77291502	      7.90876777
      5.35000000	      2.53832592	    -32.92908379	    -98.21286465	     -0.23002891	      0.96645081	     -1.95951910	    -40.60996371	    -14.30964530	     -7.85329445	    -40.59736468	    -20.92886419	      1.87003668	      0.00000000	    -15.44578960	      5.10838138	    -16.57703066	    -10.98048416	      0.75774105	      0.52651109	      0.00000000	    -49.82014967	     -9.99004200	      7.39750111
      5.36000000	      2.65245637	    -33.13058920	    -98.24195532	     -0.22799065	      0.96822089	     -1.94448973	    -38.71729137	    -14.84362604	     -7.64006753	    -43.83103178	    -22.93575009	     -1.00507613	      0.00000000	    -16.40876320	      5.46936514	    -17.13388870	    -11.47400171	      1.92425116	      1.36049066	      0.00000000	    -49.96128296	    -10.01046747	      6.99265033
      5.37000000	      2.53541975	    -33.36954904	    -98.36230725	     -0.22608545	      0.97035887	     -1.92965828	    -36.91823179	    -15.07282181	     -7.27679019	    -46.72803789	    -23.36433941	     -3.82672000	      0.00000000	    -17.65872175	      5.68075149	    -17.67544163	    -11.53868192	      2.87417164	      2.10914418	      0.00000000	    -50.14245883	     -9.84719295	      6.72056825
      5.38000000	      2.20540255	    -33.62917863	    -98.54826337	     -0.22435072	      0.97285812	     -1.91504654	    -35.19653770	    -14.95536037	     -6.73628425	    -49.26760267	    -22.32289656	     -6.39132652	      0.00000000	    -19.13401467	      5.77245513	    -17.92106201	    -11.22576907	      3.56089312	      2.44015499	      0.00000000	    -50.35751136	     -9.51465150	      6.57594061
      5.39000000	      1.75020852	    -33.90045147	    -98.77164665	     -0.22277886	      0.97564528	     -1.90063118	    -33.53947262	    -14.58406055	     -6.08167938	    -51.42647273	    -20.26126571	     -8.38261784	      0.00000000	    -20.77816167	      5.82582663	    -17.82457793	    -10.59124604	      3.92877721	      2.26624986	      0.00000000	    -50.60020120	     -9.09070263	      6.50134797
      5.40000000	      1.12052912	    -33.96652575	    -99.03351527	     -0.22138305	      0.97841788	     -1.88663797	    -31.64088954	    -13.88184127	     -5.30189415	    -53.28672768	    -17.76065493	     -9.75775751	      0.00000000	    -22.22781369	      5.70482667	    -17.44075806	     -9.87794922	      4.12514757	      1.69777660	      0.00000000	    -50.69361427	     -8.51064769	      6.56319735
      5.41000000	      0.45599766	    -33.92927301	    -99.29507844	     -0.22002223	      0.98110266	     -1.87283833	    -29.65196239	    -13.07095471	     -4.56135375	    -54.81770802	    -15.25750530	    -10.40534149	      0.00000000	    -23.60446321	      5.57929015	    -16.64131844	     -9.05085213	      4.10496133	      0.46778503	      0.00000000	    -50.70440664	     -7.88431665	      6.67586929
